<svg width="495" height="195" viewBox="0 0 495 195" fill="none" xmlns="http://www.w3.org/2000/svg">
  <style>
    .header {
      font: 600 16px 'Segoe UI', Ubuntu, sans-serif;
      fill: #70a5fd;
    }
  </style>
  <rect x="0.5" y="0.5" rx="6" width="494" height="194" fill="#1a1b27" stroke="#30363d" />
  <text x="25" y="35" class="header">My Programming Languages (Public &amp; Private)</text>
  <g clip-path="url(#bar-clip)">
    <clipPath id="bar-clip">
      <rect x="25" y="55" width="445" height="8" rx="4" />
    </clipPath>
    <rect x="25.00" y="55" width="321.36" height="8" fill="#3178c6" /><rect x="346.36" y="55" width="48.66" height="8" fill="#f1e05a" /><rect x="395.03" y="55" width="40.64" height="8" fill="#3572A5" /><rect x="435.67" y="55" width="9.62" height="8" fill="#663399" /><rect x="445.28" y="55" width="9.35" height="8" fill="#4F5D95" /><rect x="454.64" y="55" width="8.27" height="8" fill="#7355dd" /><rect x="462.91" y="55" width="7.09" height="8" fill="#8b949e" />
  </g>
  
        <g transform="translate(25, 85)">
          <circle cx="5" cy="5" r="4.5" fill="#3178c6" />
          <text x="16" y="9" fill="#c9d1d9" font-family="'Segoe UI', Ubuntu, sans-serif" font-size="12px" font-weight="500">
            TypeScript <tspan fill="#8b949e" font-size="11px">(72.2%)</tspan>
          </text>
        </g>
        
        <g transform="translate(265, 85)">
          <circle cx="5" cy="5" r="4.5" fill="#f1e05a" />
          <text x="16" y="9" fill="#c9d1d9" font-family="'Segoe UI', Ubuntu, sans-serif" font-size="12px" font-weight="500">
            JavaScript <tspan fill="#8b949e" font-size="11px">(10.9%)</tspan>
          </text>
        </g>
        
        <g transform="translate(25, 109)">
          <circle cx="5" cy="5" r="4.5" fill="#3572A5" />
          <text x="16" y="9" fill="#c9d1d9" font-family="'Segoe UI', Ubuntu, sans-serif" font-size="12px" font-weight="500">
            Python <tspan fill="#8b949e" font-size="11px">(9.1%)</tspan>
          </text>
        </g>
        
        <g transform="translate(265, 109)">
          <circle cx="5" cy="5" r="4.5" fill="#663399" />
          <text x="16" y="9" fill="#c9d1d9" font-family="'Segoe UI', Ubuntu, sans-serif" font-size="12px" font-weight="500">
            CSS <tspan fill="#8b949e" font-size="11px">(2.2%)</tspan>
          </text>
        </g>
        
        <g transform="translate(25, 133)">
          <circle cx="5" cy="5" r="4.5" fill="#4F5D95" />
          <text x="16" y="9" fill="#c9d1d9" font-family="'Segoe UI', Ubuntu, sans-serif" font-size="12px" font-weight="500">
            PHP <tspan fill="#8b949e" font-size="11px">(2.1%)</tspan>
          </text>
        </g>
        
        <g transform="translate(265, 133)">
          <circle cx="5" cy="5" r="4.5" fill="#7355dd" />
          <text x="16" y="9" fill="#c9d1d9" font-family="'Segoe UI', Ubuntu, sans-serif" font-size="12px" font-weight="500">
            C# <tspan fill="#8b949e" font-size="11px">(1.9%)</tspan>
          </text>
        </g>
        
        <g transform="translate(25, 157)">
          <circle cx="5" cy="5" r="4.5" fill="#8b949e" />
          <text x="16" y="9" fill="#c9d1d9" font-family="'Segoe UI', Ubuntu, sans-serif" font-size="12px" font-weight="500">
            Other <tspan fill="#8b949e" font-size="11px">(1.6%)</tspan>
          </text>
        </g>
        
</svg>
